# xmcd
#
# Track frame offsets:
#	150
#	18777
#	34920
#	49794
#	64134
#	76966
#	96957
#	112737
#	131757
#	146848
#	160977
#	173417
#	186765
#	204044
#
# Disc length: 2886 seconds
#
# Revision: 2
# Processed by: cddbd v1.4b41PL2 Copyright (c) Steve Scherf et al.
# Submitted via: EZCDDA 4.3.2
#
DISCID=b10b440e
DTITLE=Paulo Ricardo - O amor me escolheu
DYEAR=1900
DGENRE=
TTITLE0=E nao vou mais deixar voce tao so'
TTITLE1=Amor em vao
TTITLE2=So' me fez bem
TTITLE3=Que Pena (ela ja' nao gosta mais de mim)
TTITLE4=O amor me escolheu
TTITLE5=Tudo por nada
TTITLE6=Depende
TTITLE7=Dois
TTITLE8=De novo
TTITLE9=Nao identificado
TTITLE10=Felicidade
TTITLE11=Voce e' a cancao
TTITLE12=Lilas
TTITLE13=Cuando te vas
EXTD=
EXTT0=
EXTT1=
EXTT2=
EXTT3=
EXTT4=
EXTT5=
EXTT6=
EXTT7=
EXTT8=
EXTT9=
EXTT10=
EXTT11=
EXTT12=
EXTT13=
PLAYORDER=
